<svg viewBox="0 0 130 29" fill="none" xmlns="http://www.w3.org/2000/svg">
<path d="M7.37716 23.4307V15.3098L8.64813 18.5746L0 4.22578H5.77463L12.019 14.6239H8.67576L14.9477 4.22578H20.2527L11.6322 18.5746L12.8479 15.3098V23.4307H7.37716Z" fill="black"/>
<path d="M26.1596 23.6776C24.5202 23.6776 23.0651 23.3484 21.7941 22.6899C20.5231 22.0315 19.5192 21.1261 18.7824 19.9738C18.0641 18.8032 17.7049 17.468 17.7049 15.9682C17.7049 14.4684 18.0641 13.1423 18.7824 11.9901C19.5192 10.8378 20.5231 9.94153 21.7941 9.30136C23.0651 8.64291 24.5202 8.31368 26.1596 8.31368C27.799 8.31368 29.2542 8.64291 30.5251 9.30136C31.8145 9.94153 32.8184 10.8378 33.5368 11.9901C34.2551 13.1423 34.6143 14.4684 34.6143 15.9682C34.6143 17.468 34.2551 18.8032 33.5368 19.9738C32.8184 21.1261 31.8145 22.0315 30.5251 22.6899C29.2542 23.3484 27.799 23.6776 26.1596 23.6776ZM26.1596 19.5348C26.7675 19.5348 27.3016 19.3977 27.7621 19.1233C28.2411 18.8489 28.6187 18.4466 28.895 17.9161C29.1713 17.3674 29.3094 16.7181 29.3094 15.9682C29.3094 15.2183 29.1713 14.5873 28.895 14.0752C28.6187 13.5447 28.2411 13.1423 27.7621 12.868C27.3016 12.5936 26.7675 12.4565 26.1596 12.4565C25.5702 12.4565 25.036 12.5936 24.5571 12.868C24.0966 13.1423 23.719 13.5447 23.4243 14.0752C23.148 14.5873 23.0098 15.2183 23.0098 15.9682C23.0098 16.7181 23.148 17.3674 23.4243 17.9161C23.719 18.4466 24.0966 18.8489 24.5571 19.1233C25.036 19.3977 25.5702 19.5348 26.1596 19.5348Z" fill="black"/>
<path d="M42.2406 23.6776C41.0249 23.6776 39.9289 23.4398 38.9526 22.9643C37.9948 22.4887 37.2396 21.748 36.687 20.742C36.1528 19.7177 35.8857 18.4283 35.8857 16.8736V8.5606H41.1354V16.0231C41.1354 17.1754 41.3472 17.9984 41.7709 18.4923C42.213 18.9861 42.83 19.233 43.6221 19.233C44.1378 19.233 44.6076 19.1142 45.0312 18.8764C45.4549 18.6386 45.7956 18.2637 46.0535 17.7515C46.3114 17.2211 46.4403 16.5444 46.4403 15.7213V8.5606H51.69V23.4307H46.689V19.233L47.656 20.4128C47.1403 21.5102 46.3943 22.3333 45.418 22.882C44.4418 23.4124 43.3826 23.6776 42.2406 23.6776Z" fill="black"/>
<path d="M63.388 23.6776C62.0433 23.6776 60.9197 23.4033 60.0172 22.8545C59.133 22.3058 58.4699 21.4645 58.0278 20.3305C57.5857 19.1965 57.3647 17.7424 57.3647 15.9682C57.3647 14.2306 57.5949 12.7948 58.0554 11.6608C58.5343 10.5268 59.2251 9.68546 60.1277 9.13675C61.0302 8.58804 62.117 8.31368 63.388 8.31368C64.7511 8.31368 65.9852 8.62462 67.0904 9.24649C68.214 9.86837 69.0982 10.7555 69.7429 11.9077C70.406 13.0417 70.7375 14.3952 70.7375 15.9682C70.7375 17.5595 70.406 18.9313 69.7429 20.0835C69.0982 21.2176 68.214 22.1046 67.0904 22.7448C65.9852 23.3667 64.7511 23.6776 63.388 23.6776ZM53.9662 23.4307V3.07349H59.2159V11.0572L58.9396 15.9682L58.9672 20.8792V23.4307H53.9662ZM62.2828 19.5348C62.8722 19.5348 63.3972 19.3977 63.8577 19.1233C64.3366 18.8489 64.7142 18.4466 64.9905 17.9161C65.2852 17.3674 65.4326 16.7181 65.4326 15.9682C65.4326 15.2183 65.2852 14.5873 64.9905 14.0752C64.7142 13.5447 64.3366 13.1423 63.8577 12.868C63.3972 12.5936 62.8722 12.4565 62.2828 12.4565C61.6934 12.4565 61.1592 12.5936 60.6803 12.868C60.2198 13.1423 59.8422 13.5447 59.5474 14.0752C59.2711 14.5873 59.133 15.2183 59.133 15.9682C59.133 16.7181 59.2711 17.3674 59.5474 17.9161C59.8422 18.4466 60.2198 18.8489 60.6803 19.1233C61.1592 19.3977 61.6934 19.5348 62.2828 19.5348Z" fill="black"/>
<path d="M77.7089 23.6502C76.0327 23.6502 74.7248 23.2112 73.7854 22.3333C72.846 21.437 72.3763 20.175 72.3763 18.5472V3.07349H76.6866V18.3002C76.6866 18.9221 76.8431 19.4068 77.1563 19.7543C77.4878 20.0835 77.9483 20.2482 78.5378 20.2482C78.7588 20.2482 78.9798 20.2207 79.2009 20.1659C79.4403 20.111 79.6245 20.047 79.7535 19.9738L79.9469 23.2935C79.2285 23.5313 78.4825 23.6502 77.7089 23.6502Z" fill="black"/>
<path d="M87.7612 23.6502C86.1955 23.6502 84.7863 23.3301 83.5338 22.6899C82.2997 22.0315 81.3326 21.1261 80.6327 19.9738C79.9327 18.8215 79.5827 17.5137 79.5827 16.0505C79.5827 14.5873 79.9327 13.2795 80.6327 12.1272C81.3326 10.9749 82.2997 10.0787 83.5338 9.43854C84.7863 8.78009 86.1955 8.45086 87.7612 8.45086C89.3269 8.45086 90.7268 8.78009 91.9609 9.43854C93.195 10.0787 94.1621 10.9749 94.862 12.1272C95.562 13.2795 95.912 14.5873 95.912 16.0505C95.912 17.5137 95.562 18.8215 94.862 19.9738C94.1621 21.1261 93.195 22.0315 91.9609 22.6899C90.7268 23.3301 89.3269 23.6502 87.7612 23.6502ZM87.7612 20.1384C88.8664 20.1384 89.7689 19.7726 90.4689 19.041C91.1873 18.2911 91.5464 17.2943 91.5464 16.0505C91.5464 14.8068 91.1873 13.8191 90.4689 13.0875C89.7689 12.3376 88.8664 11.9626 87.7612 11.9626C86.656 11.9626 85.7442 12.3376 85.0258 13.0875C84.3074 13.8191 83.9482 14.8068 83.9482 16.0505C83.9482 17.2943 84.3074 18.2911 85.0258 19.041C85.7442 19.7726 86.656 20.1384 87.7612 20.1384Z" fill="black"/>
<path d="M104.706 29.0001C103.269 29.0001 101.897 28.8355 100.589 28.5063C99.2996 28.177 98.1944 27.6924 97.2734 27.0522L99.1798 23.4033C99.8061 23.8971 100.58 24.2812 101.501 24.5555C102.44 24.8482 103.352 24.9945 104.236 24.9945C105.654 24.9945 106.677 24.6836 107.303 24.0617C107.929 23.4581 108.242 22.571 108.242 21.4005V19.6446L108.519 15.4744L108.491 11.2767V8.5606H113.492V20.7146C113.492 23.5313 112.728 25.6164 111.199 26.9699C109.67 28.3234 107.506 29.0001 104.706 29.0001ZM103.794 22.6625C102.468 22.6625 101.243 22.3698 100.119 21.7846C99.014 21.181 98.1207 20.3488 97.4391 19.2879C96.776 18.2088 96.4445 16.9376 96.4445 15.4744C96.4445 14.0111 96.776 12.7491 97.4391 11.6883C98.1207 10.6091 99.014 9.77691 100.119 9.19162C101.243 8.60633 102.468 8.31368 103.794 8.31368C105.065 8.31368 106.152 8.56975 107.054 9.08188C107.957 9.57572 108.638 10.3531 109.099 11.4139C109.578 12.4747 109.817 13.8282 109.817 15.4744C109.817 17.1205 109.578 18.474 109.099 19.5348C108.638 20.5957 107.957 21.3822 107.054 21.8943C106.152 22.4064 105.065 22.6625 103.794 22.6625ZM105.037 18.5197C105.664 18.5197 106.216 18.3917 106.695 18.1356C107.192 17.8796 107.579 17.5229 107.856 17.0656C108.15 16.6084 108.298 16.078 108.298 15.4744C108.298 14.8708 108.15 14.3404 107.856 13.8831C107.579 13.4258 107.192 13.0783 106.695 12.8406C106.216 12.5845 105.664 12.4565 105.037 12.4565C104.411 12.4565 103.849 12.5845 103.352 12.8406C102.855 13.0783 102.459 13.4258 102.164 13.8831C101.888 14.3404 101.749 14.8708 101.749 15.4744C101.749 16.078 101.888 16.6084 102.164 17.0656C102.459 17.5229 102.855 17.8796 103.352 18.1356C103.849 18.3917 104.411 18.5197 105.037 18.5197Z" fill="black"/>
<path d="M130 6.14696L120.714 11.4704L120.714 0.823536L130 6.14696Z" fill="#1CD79F"/>
</svg>
